<?xml version="1.0" standalone="no"?><!DOCTYPE svg PUBLIC "-//W3C//DTD SVG 1.1//EN" "http://www.w3.org/Graphics/SVG/1.1/DTD/svg11.dtd"><svg t="1711857214732" class="icon" viewBox="0 0 1077 1024" version="1.1" xmlns="http://www.w3.org/2000/svg" p-id="7038" xmlns:xlink="http://www.w3.org/1999/xlink" width="210.3515625" height="200"><path d="M1069.948718 608.124718c-0.682667-1.207795-1.207795-2.468103-2.021744-3.623385-5.172513-7.378051-12.104205-12.708103-19.797333-16.252718-15.570051-7.168-34.500923-6.354051-49.782154 4.069744-18.326974 12.524308-25.468718 34.763487-19.587282 54.613333-154.624 121.383385-305.230769 183.66359-342.147282 139.684103-36.837744-43.900718 52.932923-177.624615 202.200615-304.390564 18.773333 10.371282 43.060513 7.981949 59.418256-7.693128 19.928615-19.062154 20.532513-50.281026 1.365333-69.710769-19.193436-19.429744-50.884923-19.718564-70.787282-0.630154-15.622564 14.966154-19.167179 37.336615-10.817641 55.66359-132.568615 144.252718-270.913641 229.638564-314.656821 192.275692-43.716923-37.389128 23.053128-183.899897 149.87159-332.983795 19.902359 6.117744 42.456615-0.288821 55.584821-17.854359 16.462769-22.029128 11.815385-52.854154-10.397538-68.870564-22.212923-15.990154-53.563077-11.106462-70.052103 10.89641-13.390769 17.906872-12.603077 41.563897 0.052513 58.394256-107.021128 163.131077-229.376 269.285744-278.738051 239.510974-49.152-29.643487-8.139487-183.243487 91.346051-349.525333 22.186667 5.382564 46.158769-4.804923 56.97641-25.836308 12.576821-24.365949 2.783179-53.956923-21.845333-66.087385-24.628513-12.104205-54.797128-2.205538-67.347692 22.16041C399.438769 140.104205 402.510769 161.13559 414.851282 175.734154 336.160821 353.673846 232.789333 477.997949 179.042462 456.598974c-53.431795-21.267692-38.465641-178.884923 32.085333-358.4 23.263179 2.284308 45.843692-11.815385 53.142974-34.684718 6.196513-19.429744-0.393846-39.699692-15.123692-52.040205C244.184615 7.299282 238.250667 4.017231 231.581538 2.021744 231.082667 1.864205 230.557538 1.864205 230.058667 1.732923c-25.915077-6.931692-53.116718 7.561846-61.282462 33.083077C161.371897 57.974154 172.215795 82.235077 193.247179 92.921436L0 610.881641C179.2 693.248 371.34441 873.603282 499.843282 1024l490.496-357.218462c16.594051 17.197949 43.926974 20.453744 64.538256 6.354051C1076.512821 658.353231 1082.656821 630.048821 1069.948718 608.124718z" fill="#FFD512" p-id="7039"></path></svg>