<?xml version="1.0" standalone="no"?><!DOCTYPE svg PUBLIC "-//W3C//DTD SVG 1.1//EN" "http://www.w3.org/Graphics/SVG/1.1/DTD/svg11.dtd"><svg t="1709615426446" class="icon" viewBox="0 0 1024 1024" version="1.1" xmlns="http://www.w3.org/2000/svg" p-id="2820" xmlns:xlink="http://www.w3.org/1999/xlink" width="200" height="200"><path d="M1024 696.36096h-60.35456v61.35808H1024v-61.35808zM1024 634.81856h-60.35456v61.5424H1024v-61.5424zM1024 573.44h-60.35456v61.35808H1024v-61.3376zM963.64544 757.71904h-60.14976v61.5424h60.14976v-61.5424z" fill="#000000" p-id="2821"></path><path d="M963.64544 696.36096h-60.14976v61.35808h60.14976v-61.35808zM963.64544 634.81856h-60.14976v61.5424h60.14976v-61.5424zM963.64544 573.44h-60.14976v61.35808h60.14976v-61.3376z" fill="#FFFFFF" p-id="2822"></path><path d="M963.64544 512.1024h-60.14976v61.35808h60.14976v-61.35808zM903.49568 757.71904H843.3664v61.5424h60.14976v-61.5424z" fill="#000000" p-id="2823"></path><path d="M903.49568 696.36096H843.3664v61.35808h60.14976v-61.35808zM903.49568 634.81856H843.3664v61.5424h60.14976v-61.5424zM903.49568 573.44H843.3664v61.35808h60.14976v-61.3376z" fill="#FFFFFF" p-id="2824"></path><path d="M903.49568 512.1024H843.3664v61.35808h60.14976v-61.35808zM843.34592 757.71904h-60.35456v61.5424h60.35456v-61.5424z" fill="#000000" p-id="2825"></path><path d="M843.34592 696.36096h-60.35456v61.35808h60.35456v-61.35808zM843.34592 634.81856h-60.35456v61.5424h60.35456v-61.5424zM843.34592 573.44h-60.35456v61.35808h60.35456v-61.3376z" fill="#FFFFFF" p-id="2826"></path><path d="M843.34592 512.1024h-60.35456v61.35808h60.35456v-61.35808zM782.99136 757.71904h-60.14976v61.5424h60.14976v-61.5424z" fill="#000000" p-id="2827"></path><path d="M782.99136 696.36096h-60.14976v61.35808h60.14976v-61.35808zM782.99136 634.81856h-60.14976v61.5424h60.14976v-61.5424zM782.99136 573.44h-60.14976v61.35808h60.14976v-61.3376z" fill="#000000" p-id="2828"></path><path d="M782.99136 512.1024h-60.14976v61.35808h60.14976v-61.35808zM782.99136 450.56h-60.14976v61.5424h60.14976V450.56zM782.99136 389.18144h-60.14976V450.56h60.14976v-61.35808zM722.8416 819.26144h-60.35456v61.35808h60.35456v-61.35808z" fill="#000000" p-id="2829"></path><path d="M722.8416 757.71904h-60.35456v61.5424h60.35456v-61.5424z" fill="#C4C8F5" p-id="2830"></path><path d="M722.8416 696.36096h-60.35456v61.35808h60.35456v-61.35808zM722.8416 634.81856h-60.35456v61.5424h60.35456v-61.5424zM722.8416 573.44h-60.35456v61.35808h60.35456v-61.3376z" fill="#C4C8F5" p-id="2831"></path><path d="M722.8416 512.1024h-60.35456v61.35808h60.35456v-61.35808zM722.8416 450.56h-60.35456v61.5424h60.35456V450.56z" fill="#C4C8F5" p-id="2832"></path><path d="M722.8416 389.18144h-60.35456V450.56h60.35456v-61.35808zM662.48704 880.61952H602.3168v61.35808h60.14976v-61.35808z" fill="#000000" p-id="2833"></path><path d="M662.48704 819.26144H602.3168v61.35808h60.14976v-61.35808zM662.48704 757.71904H602.3168v61.5424h60.14976v-61.5424z" fill="#C4C8F5" p-id="2834"></path><path d="M662.48704 696.36096H602.3168v61.35808h60.14976v-61.35808zM662.48704 634.81856H602.3168v61.5424h60.14976v-61.5424zM662.48704 573.44H602.3168v61.35808h60.14976v-61.3376z" fill="#C4C8F5" p-id="2835"></path><path d="M662.48704 512.1024H602.3168v61.35808h60.14976v-61.35808zM662.48704 450.56H602.3168v61.5424h60.14976V450.56z" fill="#C4C8F5" p-id="2836"></path><path d="M662.48704 389.18144H602.3168V450.56h60.14976v-61.35808zM602.3168 941.95712h-60.12928V1003.52h60.14976v-61.56288z" fill="#000000" p-id="2837"></path><path d="M602.3168 880.61952h-60.12928v61.35808h60.14976v-61.35808zM602.3168 819.26144h-60.12928v61.35808h60.14976v-61.35808zM602.3168 757.71904h-60.12928v61.5424h60.14976v-61.5424z" fill="#C4C8F5" p-id="2838"></path><path d="M602.3168 696.36096h-60.12928v61.35808h60.14976v-61.35808zM602.3168 634.81856h-60.12928v61.5424h60.14976v-61.5424zM602.3168 573.44h-60.12928v61.35808h60.14976v-61.3376z" fill="#C4C8F5" p-id="2839"></path><path d="M602.3168 512.1024h-60.12928v61.35808h60.14976v-61.35808zM602.3168 450.56h-60.12928v61.5424h60.14976V450.56z" fill="#C4C8F5" p-id="2840"></path><path d="M602.3168 389.18144h-60.12928V450.56h60.14976v-61.35808zM602.3168 266.28096h-60.12928v61.35808h60.14976v-61.35808zM602.3168 143.38048h-60.12928v61.56288h60.14976V143.36zM602.3168 20.48h-60.12928v61.56288h60.14976V20.48zM542.18752 941.95712h-60.35456V1003.52h60.35456v-61.56288z" fill="#000000" p-id="2841"></path><path d="M542.18752 880.61952h-60.35456v61.35808h60.35456v-61.35808zM542.18752 819.26144h-60.35456v61.35808h60.35456v-61.35808zM542.18752 757.71904h-60.35456v61.5424h60.35456v-61.5424z" fill="#C4C8F5" p-id="2842"></path><path d="M542.18752 696.36096h-60.35456v61.35808h60.35456v-61.35808zM542.18752 634.81856h-60.35456v61.5424h60.35456v-61.5424zM542.18752 573.44h-60.35456v61.35808h60.35456v-61.3376z" fill="#C4C8F5" p-id="2843"></path><path d="M542.18752 512.1024h-60.35456v61.35808h60.35456v-61.35808zM542.18752 450.56h-60.35456v61.5424h60.35456V450.56z" fill="#C4C8F5" p-id="2844"></path><path d="M542.18752 389.18144h-60.35456V450.56h60.35456v-61.35808zM542.18752 204.94336h-60.35456v61.3376h60.35456v-61.3376zM542.18752 81.92h-60.35456v61.35808h60.35456V81.92zM481.81248 941.95712H421.6832V1003.52h60.17024v-61.56288z" fill="#000000" p-id="2845"></path><path d="M481.81248 880.61952H421.6832v61.35808h60.17024v-61.35808zM481.81248 819.26144H421.6832v61.35808h60.17024v-61.35808zM481.81248 757.71904H421.6832v61.5424h60.17024v-61.5424z" fill="#C4C8F5" p-id="2846"></path><path d="M481.81248 696.36096H421.6832v61.35808h60.17024v-61.35808zM481.81248 634.81856H421.6832v61.5424h60.17024v-61.5424zM481.81248 573.44H421.6832v61.35808h60.17024v-61.3376z" fill="#C4C8F5" p-id="2847"></path><path d="M481.81248 512.1024H421.6832v61.35808h60.17024v-61.35808zM481.81248 450.56H421.6832v61.5424h60.17024V450.56z" fill="#C4C8F5" p-id="2848"></path><path d="M481.81248 389.18144H421.6832V450.56h60.17024v-61.35808zM421.6832 941.95712h-60.35456V1003.52h60.35456v-61.56288z" fill="#000000" p-id="2849"></path><path d="M421.6832 880.61952h-60.35456v61.35808h60.35456v-61.35808zM421.6832 819.26144h-60.35456v61.35808h60.35456v-61.35808zM421.6832 757.71904h-60.35456v61.5424h60.35456v-61.5424z" fill="#C4C8F5" p-id="2850"></path><path d="M421.6832 696.36096h-60.35456v61.35808h60.35456v-61.35808zM421.6832 634.81856h-60.35456v61.5424h60.35456v-61.5424zM421.6832 573.44h-60.35456v61.35808h60.35456v-61.3376z" fill="#C4C8F5" p-id="2851"></path><path d="M421.6832 512.1024h-60.35456v61.35808h60.35456v-61.35808zM421.6832 450.56h-60.35456v61.5424h60.35456V450.56z" fill="#C4C8F5" p-id="2852"></path><path d="M421.6832 389.18144h-60.35456V450.56h60.35456v-61.35808zM421.6832 266.24h-60.35456v61.35808h60.35456V266.24zM421.6832 143.38048h-60.35456v61.56288h60.35456V143.36zM421.6832 20.48h-60.35456v61.56288h60.35456V20.48zM361.32864 941.95712h-60.14976V1003.52h60.14976v-61.56288z" fill="#000000" p-id="2853"></path><path d="M361.32864 880.61952h-60.14976v61.35808h60.14976v-61.35808zM361.32864 819.26144h-60.14976v61.35808h60.14976v-61.35808zM361.32864 757.71904h-60.14976v61.5424h60.14976v-61.5424z" fill="#C4C8F5" p-id="2854"></path><path d="M361.32864 696.36096h-60.14976v61.35808h60.14976v-61.35808zM361.32864 634.81856h-60.14976v61.5424h60.14976v-61.5424zM361.32864 573.44h-60.14976v61.35808h60.14976v-61.3376z" fill="#C4C8F5" p-id="2855"></path><path d="M361.32864 512.1024h-60.14976v61.35808h60.14976v-61.35808zM361.32864 450.56h-60.14976v61.5424h60.14976V450.56z" fill="#C4C8F5" p-id="2856"></path><path d="M361.32864 389.18144h-60.14976V450.56h60.14976v-61.35808zM361.32864 204.8h-60.14976v61.35808h60.14976V204.8zM361.32864 82.04288h-60.14976V143.36h60.14976V82.04288zM301.1584 941.95712h-60.14976V1003.52h60.14976v-61.56288z" fill="#000000" p-id="2857"></path><path d="M301.1584 880.61952h-60.14976v61.35808h60.14976v-61.35808zM301.1584 819.26144h-60.14976v61.35808h60.14976v-61.35808zM301.1584 757.71904h-60.14976v61.5424h60.14976v-61.5424z" fill="#C4C8F5" p-id="2858"></path><path d="M301.1584 696.36096h-60.14976v61.35808h60.14976v-61.35808zM301.1584 634.81856h-60.14976v61.5424h60.14976v-61.5424zM301.1584 573.44h-60.14976v61.35808h60.14976v-61.3376z" fill="#C4C8F5" p-id="2859"></path><path d="M301.1584 512.1024h-60.14976v61.35808h60.14976v-61.35808zM301.1584 450.56h-60.14976v61.5424h60.14976V450.56z" fill="#C4C8F5" p-id="2860"></path><path d="M301.1584 389.18144h-60.14976V450.56h60.14976v-61.35808zM241.00864 941.95712H180.65408V1003.52h60.35456v-61.56288z" fill="#000000" p-id="2861"></path><path d="M241.00864 880.61952H180.65408v61.35808h60.35456v-61.35808zM241.00864 819.26144H180.65408v61.35808h60.35456v-61.35808zM241.00864 757.71904H180.65408v61.5424h60.35456v-61.5424z" fill="#C4C8F5" p-id="2862"></path><path d="M241.00864 696.36096H180.65408v61.35808h60.35456v-61.35808zM241.00864 634.81856H180.65408v61.5424h60.35456v-61.5424zM241.00864 573.44H180.65408v61.35808h60.35456v-61.3376z" fill="#C4C8F5" p-id="2863"></path><path d="M241.00864 512.1024H180.65408v61.35808h60.35456v-61.35808zM241.00864 450.56H180.65408v61.5424h60.35456V450.56z" fill="#C4C8F5" p-id="2864"></path><path d="M241.00864 389.18144H180.65408V450.56h60.35456v-61.35808zM241.00864 266.28096H180.65408v61.35808h60.35456v-61.35808zM241.00864 143.38048H180.65408v61.56288h60.35456V143.36zM241.00864 20.48H180.65408v61.56288h60.35456V20.48zM180.65408 880.61952H120.50432v61.35808h60.14976v-61.35808z" fill="#000000" p-id="2865"></path><path d="M180.65408 819.26144H120.50432v61.35808h60.14976v-61.35808z" fill="#C4C8F5" p-id="2866"></path><path d="M180.65408 757.71904H120.50432v61.5424h60.14976v-61.5424z" fill="#FFFFFF" p-id="2867"></path><path d="M180.65408 696.36096H120.50432v61.35808h60.14976v-61.35808z" fill="#C4C8F5" p-id="2868"></path><path d="M180.65408 634.81856H120.50432v61.5424h60.14976v-61.5424zM180.65408 573.44H120.50432v61.35808h60.14976v-61.3376z" fill="#FFFFFF" p-id="2869"></path><path d="M180.65408 512.1024H120.50432v61.35808h60.14976v-61.35808zM180.65408 450.56H120.50432v61.5424h60.14976V450.56z" fill="#C4C8F5" p-id="2870"></path><path d="M180.65408 389.18144H120.50432V450.56h60.14976v-61.35808zM180.65408 204.94336H120.50432v61.3376h60.14976v-61.3376zM180.65408 82.04288H120.50432V143.36h60.14976V82.04288zM120.50432 819.26144H60.14976v61.35808h60.35456v-61.35808z" fill="#000000" p-id="2871"></path><path d="M120.50432 757.71904H60.14976v61.5424h60.35456v-61.5424z" fill="#C4C8F5" p-id="2872"></path><path d="M120.50432 696.36096H60.14976v61.35808h60.35456v-61.35808zM120.50432 634.81856H60.14976v61.5424h60.35456v-61.5424zM120.50432 573.44H60.14976v61.35808h60.35456v-61.3376z" fill="#C4C8F5" p-id="2873"></path><path d="M120.50432 512.1024H60.14976v61.35808h60.35456v-61.35808zM120.50432 450.56H60.14976v61.5424h60.35456V450.56z" fill="#C4C8F5" p-id="2874"></path><path d="M120.50432 389.18144H60.14976V450.56h60.35456v-61.35808zM60.14976 757.71904H0v61.5424h60.14976v-61.5424z" fill="#000000" p-id="2875"></path><path d="M60.14976 696.36096H0v61.35808h60.14976v-61.35808zM60.14976 634.81856H0v61.5424h60.14976v-61.5424zM60.14976 573.44H0v61.35808h60.14976v-61.3376z" fill="#000000" p-id="2876"></path><path d="M60.14976 512.1024H0v61.35808h60.14976v-61.35808zM60.14976 450.56H0v61.5424h60.14976V450.56zM60.14976 389.18144H0V450.56h60.14976v-61.35808z" fill="#000000" p-id="2877"></path></svg>